# xmcd
#
# Track frame offsets: 
#        150
#        18579
#        47612
#        77825
#        97833
#        126871
#        188224
#        212392
#
# Disc length: 3058 seconds
#
# Revision: 2
# Processed by: cddbd v1.4PL0 Copyright (c) Steve Scherf et al.
# Submitted via: ExactAudioCopy v0.90b4
#
DISCID=5e0bf008
DTITLE=John Lee Hooker - On Stage 1992
DYEAR=1900
DGENRE=
TTITLE0=John Lee Hooker - Ride Johnny Ride
TTITLE1=John Lee Hooker - Crawling King Snake
TTITLE2=John Lee Hooker - I´m In A Mood For Love
TTITLE3=John Lee Hooker - You Gimme So Much Trouble
TTITLE4=John Lee Hooker - Born For Good Luck (Bad Luck Do Me No Harm)
TTITLE5=John Lee Hooker - Higher and Higher
TTITLE6=John Lee Hooker - Boogie Chillin'
TTITLE7=John Lee Hooker - Red House
EXTD=
EXTT0=
EXTT1=
EXTT2=
EXTT3=
EXTT4=
EXTT5=
EXTT6=
EXTT7=
PLAYORDER=
